<svg id="Layer_1" enable-background="new 0 0 512 512" height="512" viewBox="0 0 512 512" width="512" xmlns="http://www.w3.org/2000/svg"><g><path d="m365.134 71.88c-10.354 28.482-23.181 60.806-27.72 112.12h-162.82c-5.964-67.43-27.123-104.508-29.87-120.13-4.797-27.185 14.587-55.87 48.98-55.87 14.13 0 27.53 6.28 36.58 17.13l25.72 30.87 25.72-30.87c9.05-10.85 22.45-17.13 36.58-17.13 37.392 0 57.624 34.346 46.83 63.88z" fill="#e48c9b"/><path d="m365.134 71.88c-10.35 28.48-23.18 60.81-27.72 112.12h-32c4.54-51.31 17.37-83.64 27.72-112.12 9.05-24.76-3.72-52.91-30.12-61.36 4.87-1.65 10.03-2.52 15.29-2.52 37.39 0 57.62 34.35 46.83 63.88z" fill="#cc5b6f"/><path d="m337.414 184c-.94 10.62-1.41 21.3-1.41 32h-160c0-10.7-.47-21.38-1.41-32z" fill="#edebfd"/><path d="m305.414 184c-.94 10.62-1.41 21.3-1.41 32h32c0-10.7.47-21.38 1.41-32z" fill="#d2d2fc"/><path d="m444.444 458.79-42.84 5.02 1.08 4.1c2.69 10.15-4.97 20.09-15.47 20.09h-78.27c.01 8.66-7.01 16-16.01 16h-73.86c-9 0-16.02-7.34-16.01-16h-78.27c-10.5 0-18.16-9.94-15.47-20.09l1.08-4.1-42.84-5.02c-10.07-1.43-16.26-11.79-12.76-21.34l38.33-103.56c16.96-45.81 45.51-86.43 82.87-117.89h160c36.74 31.49 64.93 71.75 81.95 117.04l39.25 104.41c3.5 9.55-2.69 19.91-12.76 21.34z" fill="#edebfd"/><path d="m410.444 458.79c10.07-1.43 16.26-11.79 12.76-21.34l-39.25-104.41c-17.02-45.29-45.21-85.55-81.95-117.04h34c36.74 31.49 64.93 71.75 81.95 117.04l39.25 104.41c3.5 9.55-2.69 19.91-12.76 21.34l-42.84 5.02z" fill="#d2d2fc"/><path d="m464.69 434.632-39.246-104.407c-17.009-45.251-45.117-85.913-81.4-117.832.632-62.882 16.278-103.858 28.613-137.776 12.562-34.543-11.13-74.617-54.353-74.617-16.553 0-32.125 7.293-42.722 20.01l-19.578 23.494-19.578-23.494c-10.597-12.717-26.169-20.01-42.722-20.01-43.245 0-66.908 40.094-54.353 74.617 11.68 32.117 27.96 73.545 28.613 137.735-36.939 31.948-65.368 72.93-82.33 118.757l-38.338 103.584c-5.26 14.344 4.042 29.864 19.138 32.021l34.355 4.908c-.241 12.981 10.205 24.378 24.005 24.378h71.657c3.427 9.681 12.526 16 22.624 16h73.859c10.112 0 19.202-6.335 22.624-16h71.657c13.798 0 24.247-11.394 24.006-24.378l34.354-4.908c15.084-2.155 24.409-17.645 19.115-32.082zm-280.686-226.632v-16h144v16c-7.992 0-136.007 0-144 0zm-29.615-138.852c-9.384-25.806 9.807-53.148 37.228-53.148h2.088c11.791 0 22.882 5.195 30.431 14.253 27.782 33.338 26.158 31.779 28.141 32.824 3.172 1.67 7.184 1.061 9.699-1.766.418-.469 5.692-6.81 25.898-31.058 7.548-9.058 18.639-14.253 30.43-14.253h2.088c27.441 0 46.606 27.355 37.228 53.149-10.253 28.192-22.243 58.614-27.454 106.851h-148.324c-5.162-47.788-17.012-78.143-27.453-106.852zm288.922 381.727-35.518 5.074-40.765-153.996c-1.131-4.271-5.508-6.819-9.78-5.686-4.271 1.13-6.817 5.509-5.687 9.781l43.39 163.913c1.346 5.073-2.483 10.04-7.736 10.04h-71.322l-20.01-113.39c-.768-4.352-4.922-7.255-9.269-6.488-4.351.768-7.256 4.917-6.487 9.269l20.686 117.22c.865 4.901-2.898 9.39-7.878 9.39-8.32 0-65.092 0-73.859 0-4.976 0-8.744-4.485-7.878-9.391l20.686-117.219c.769-4.351-2.137-8.5-6.487-9.269-4.351-.766-8.501 2.137-9.269 6.488l-20.011 113.389h-71.322c-5.254 0-9.082-4.965-7.736-10.042l43.39-163.91c1.131-4.271-1.415-8.65-5.687-9.781-4.269-1.133-8.649 1.415-9.78 5.686l-40.766 153.996-35.518-5.074c-5.071-.725-8.116-5.939-6.387-10.651l38.331-103.562c16.107-43.519 43.16-82.41 78.32-112.662h154.049c34.542 30.25 61.298 68.862 77.458 111.855l39.224 104.346c1.751 4.782-1.35 9.954-6.382 10.674z"/></g></svg>